<?xml version="1.0" standalone="no"?>
<!DOCTYPE svg PUBLIC "-//W3C//DTD SVG 20010904//EN"
 "http://www.w3.org/TR/2001/REC-SVG-20010904/DTD/svg10.dtd">
<svg version="1.0" xmlns="http://www.w3.org/2000/svg"
 width="300.000000pt" height="173.000000pt" viewBox="0 0 300.000000 173.000000"
 preserveAspectRatio="xMidYMid meet">

<g transform="translate(0.000000,173.000000) scale(0.100000,-0.100000)"
fill="#000000" stroke="none">
<path d="M534 1698 c-54 -104 -524 -1082 -521 -1084 1 -2 106 57 232 131 293
172 294 172 389 37 67 -95 109 -136 161 -158 50 -21 148 -21 197 0 129 55 194
212 138 334 -11 23 -126 188 -256 365 -262 357 -301 407 -314 407 -5 0 -17
-14 -26 -32z"/>
<path d="M1030 461 c-18 -5 -24 -13 -21 -27 3 -10 6 -110 8 -221 l4 -203 29 0
c29 0 30 1 30 53 0 43 5 58 23 75 l24 22 53 -75 c48 -68 56 -75 87 -75 18 0
33 3 33 6 0 4 -30 47 -67 96 l-66 89 51 45 c29 25 52 49 52 52 0 4 -10 13 -22
21 -21 13 -26 10 -95 -65 l-72 -79 -1 148 c0 156 1 153 -50 138z"/>
<path d="M11 393 c5 -21 9 -116 9 -210 l0 -173 89 0 c96 0 133 9 168 42 45 42
38 131 -13 165 l-23 15 20 31 c27 45 25 99 -5 134 -24 27 -27 28 -139 31
l-115 4 9 -39z m173 -15 c31 -13 40 -38 32 -84 -8 -41 -30 -54 -90 -54 l-46 0
0 75 0 75 40 0 c21 0 50 -5 64 -12z m37 -197 c16 -13 23 -29 23 -52 0 -65 -5
-69 -89 -69 l-75 0 0 70 0 70 59 0 c43 0 65 -5 82 -19z"/>
<path d="M1842 400 c-19 -8 -21 -13 -12 -29 6 -12 10 -91 10 -190 l0 -171 25
0 25 0 0 200 c0 212 1 209 -48 190z"/>
<path d="M2001 384 c-13 -17 -21 -41 -21 -65 0 -31 -4 -39 -19 -39 -21 0 -45
-23 -34 -33 3 -4 17 -7 30 -7 23 0 23 -1 23 -115 l0 -115 25 0 25 0 0 115 0
115 45 0 c38 0 45 3 45 20 0 17 -7 20 -45 20 l-45 0 0 38 c0 50 13 63 53 51
44 -13 54 -11 61 8 9 23 -11 33 -71 33 -44 0 -55 -4 -72 -26z"/>
<path d="M2397 403 c-15 -4 -17 -10 -11 -26 4 -12 9 -100 11 -195 l4 -172 25
0 24 0 0 200 c0 217 3 207 -53 193z"/>
<path d="M2777 403 c-15 -4 -17 -10 -11 -26 4 -12 9 -100 11 -195 l4 -172 25
0 c24 0 24 1 24 100 l0 101 43 19 c42 20 42 20 60 -1 14 -17 17 -41 17 -120 0
-99 0 -99 25 -99 l25 0 0 108 c0 119 -11 151 -53 166 -21 8 -37 5 -72 -12
l-45 -22 0 80 c0 85 -1 86 -53 73z"/>
<path d="M1619 373 c-1 -5 -1 -12 0 -17 1 -5 -25 -74 -57 -155 -80 -196 -79
-191 -49 -191 21 0 28 8 40 43 l14 42 78 0 78 0 15 -42 c12 -37 17 -43 43 -43
l28 0 -29 81 c-17 44 -49 128 -72 185 -36 90 -44 104 -65 104 -13 0 -24 -3
-24 -7z m64 -165 l25 -68 -59 0 c-32 0 -59 3 -59 7 0 20 54 143 60 136 4 -4
19 -38 33 -75z"/>
<path d="M411 315 c-23 -11 -31 -20 -27 -31 3 -9 6 -17 6 -20 0 -2 12 1 26 6
47 18 92 12 110 -15 28 -42 16 -59 -46 -66 -89 -10 -120 -35 -120 -99 0 -44
15 -67 53 -79 34 -12 86 -2 114 21 12 10 17 9 28 -5 14 -20 16 -20 49 -7 l26
9 -21 35 c-15 25 -20 49 -18 83 8 144 -13 183 -98 183 -26 -1 -63 -7 -82 -15z
m127 -202 c-3 -35 -7 -39 -46 -53 -43 -15 -44 -14 -63 9 -20 24 -18 59 5 73 6
4 33 8 59 8 l48 0 -3 -37z"/>
<path d="M687 318 c-17 -6 -24 -14 -20 -21 5 -7 10 -73 13 -147 l5 -135 28 -3
27 -3 0 110 c0 106 1 110 25 130 14 11 40 23 57 26 50 11 58 -9 58 -147 l0
-118 30 0 30 0 0 125 c0 162 -15 195 -86 195 -14 0 -42 -9 -64 -20 -22 -11
-42 -20 -45 -20 -3 0 -5 9 -5 20 0 22 -11 24 -53 8z"/>
<path d="M2168 278 c-32 -11 -41 -53 -10 -44 79 23 112 13 112 -33 0 -27 -3
-30 -50 -36 -68 -9 -100 -36 -100 -84 0 -64 46 -89 117 -65 33 11 48 13 51 5
4 -13 31 -14 51 -2 11 7 11 13 -3 32 -12 17 -16 46 -16 107 0 75 -2 85 -25
107 -26 27 -76 32 -127 13z m102 -183 c0 -28 -4 -36 -24 -41 -42 -10 -71 -1
-74 24 -6 42 4 52 53 52 45 0 45 0 45 -35z"/>
<path d="M2548 278 c-32 -11 -41 -53 -10 -44 79 23 112 13 112 -33 0 -27 -3
-30 -51 -36 -64 -9 -102 -40 -102 -83 0 -63 49 -90 120 -66 33 11 48 13 51 5
4 -13 31 -14 51 -2 11 7 11 13 -3 32 -12 17 -16 46 -16 107 0 75 -2 85 -25
107 -26 27 -76 32 -127 13z m102 -183 c0 -28 -4 -36 -24 -41 -42 -10 -71 -1
-74 24 -6 42 4 52 53 52 45 0 45 0 45 -35z"/>
</g>
</svg>
